<svg width="1024" height="512" viewBox="0 0 1024 512" xmlns="http://www.w3.org/2000/svg" role="img" aria-label="LambRoll Isle 羊卷岛品牌字标">
  <rect width="1024" height="512" rx="36" fill="#E6EDF7"/>

  <g transform="translate(92,112)">
    <rect width="292" height="292" rx="44" fill="#F4F8FF" stroke="#D1DDED" stroke-width="3"/>

    <circle cx="146" cy="164" r="76" fill="#FFFDF9" stroke="#E7E1D9" stroke-width="3"/>
    <ellipse cx="112" cy="120" rx="22" ry="34" fill="#F7EFE4"/>
    <ellipse cx="180" cy="120" rx="22" ry="34" fill="#F7EFE4"/>

    <path d="M114 84 C130 66, 162 66, 178 84" fill="none" stroke="#BFD1EA" stroke-width="12" stroke-linecap="round"/>
    <path d="M126 74 C136 62, 156 62, 166 74" fill="none" stroke="#FDFBF7" stroke-width="10" stroke-linecap="round"/>

    <circle cx="126" cy="160" r="6" fill="#2E456F"/>
    <circle cx="166" cy="160" r="6" fill="#2E456F"/>
    <path d="M136 186 Q146 196 156 186" fill="none" stroke="#2E456F" stroke-width="5" stroke-linecap="round"/>

    <path d="M78 212 H214 L190 246 H102 Z" fill="#8FB7E3"/>
    <circle cx="146" cy="236" r="10" fill="#7FA8D8"/>
  </g>

  <g transform="translate(430,194)">
    <text x="0" y="0" font-size="92" font-weight="750" letter-spacing="0.5" font-family="Avenir Next, Segoe UI, PingFang SC, Microsoft YaHei, sans-serif" fill="#243A60">LambRoll Isle</text>
    <text x="2" y="72" font-size="42" font-weight="650" letter-spacing="2" font-family="Avenir Next, Segoe UI, PingFang SC, Microsoft YaHei, sans-serif" fill="#47658F">羊卷岛</text>
  </g>
</svg>
