<svg width="1024" height="512" viewBox="0 0 1024 512" xmlns="http://www.w3.org/2000/svg">
  <defs>
    <linearGradient id="bg" x1="0" y1="0" x2="1" y2="1">
      <stop offset="0%" stop-color="#FFF8F5" />
      <stop offset="100%" stop-color="#EEF6FF" />
    </linearGradient>
    <linearGradient id="ink" x1="0" y1="0" x2="1" y2="1">
      <stop offset="0%" stop-color="#2A3A62" />
      <stop offset="100%" stop-color="#1E2948" />
    </linearGradient>
  </defs>

  <rect width="1024" height="512" rx="34" fill="#F7F9FF" />

  <g transform="translate(76,54)">
    <rect width="248" height="248" rx="42" fill="url(#bg)" />

    <rect x="50" y="122" width="148" height="90" rx="36" fill="#FCF8F1" />
    <rect x="60" y="86" width="128" height="90" rx="32" fill="#FFFDF9" />

    <rect x="30" y="106" width="30" height="48" rx="13" fill="#F3EBDD" />
    <rect x="188" y="106" width="30" height="48" rx="13" fill="#F3EBDD" />
    <rect x="38" y="116" width="14" height="26" rx="6" fill="#F7CED7" />
    <rect x="196" y="116" width="14" height="26" rx="6" fill="#F7CED7" />

    <rect x="78" y="64" width="92" height="10" fill="#C5D6EF" />
    <rect x="88" y="48" width="72" height="14" fill="#FFFDF9" />
    <rect x="100" y="34" width="48" height="14" fill="#FFFDF9" />

    <circle cx="98" cy="116" r="7" fill="#2A3A62" />
    <circle cx="96" cy="113" r="2" fill="#FFFFFF" />
    <rect x="142" y="112" width="24" height="6" rx="3" fill="#2A3A62" />

    <rect x="94" y="132" width="22" height="8" rx="4" fill="#F9C0CC" />
    <rect x="140" y="132" width="22" height="8" rx="4" fill="#F9C0CC" />

    <rect x="118" y="118" width="8" height="4" rx="2" fill="#2A3A62" />
    <path d="M114 124 Q122 134 130 124" fill="none" stroke="#2A3A62" stroke-width="4" stroke-linecap="round" />
    <circle cx="122" cy="130" r="6" fill="#FF9BB6" />

    <polygon points="46,158 202,158 150,192 94,192" fill="#8FC4FF" />
    <polygon points="46,158 122,184 202,158 150,192 94,192" fill="#71AFE9" />
    <rect x="152" y="186" width="22" height="30" rx="7" fill="#7BC887" />

    <rect x="72" y="204" width="22" height="18" rx="6" fill="#BA8C73" />
    <rect x="152" y="204" width="22" height="18" rx="6" fill="#BA8C73" />

    <text x="124" y="290" text-anchor="middle" font-size="22" font-family="Segoe UI, PingFang SC, Microsoft YaHei, sans-serif" fill="#223457" font-weight="700">Pixel Sheep Roll</text>
  </g>

  <text x="360" y="194" font-size="84" font-weight="700" font-family="Segoe UI, PingFang SC, Microsoft YaHei, sans-serif" fill="url(#ink)">ColorWalking</text>
  <text x="360" y="266" font-size="34" font-family="Segoe UI, PingFang SC, Microsoft YaHei, sans-serif" fill="#576B90">Walk in color, walk in mood.</text>
  <text x="360" y="318" font-size="26" font-family="Segoe UI, PingFang SC, Microsoft YaHei, sans-serif" fill="#6E80A3">A chibi pet that keeps you company every day.</text>
</svg>
