<svg width="1024" height="512" viewBox="0 0 1024 512" xmlns="http://www.w3.org/2000/svg">
  <defs>
    <linearGradient id="bg" x1="0" y1="0" x2="1" y2="1">
      <stop offset="0%" stop-color="#FFF8EA"/>
      <stop offset="100%" stop-color="#EAF4FF"/>
    </linearGradient>
    <linearGradient id="title" x1="0" y1="0" x2="1" y2="1">
      <stop offset="0%" stop-color="#233056"/>
      <stop offset="100%" stop-color="#1E2C4D"/>
    </linearGradient>
  </defs>

  <rect width="1024" height="512" rx="32" fill="#F8FAFD"/>

  <g transform="translate(80,78)">
    <rect x="0" y="0" width="220" height="220" rx="34" fill="url(#bg)"/>

    <rect x="64" y="122" width="92" height="54" fill="#FBF9F4"/>
    <rect x="64" y="152" width="92" height="24" fill="#ECE7DC"/>

    <rect x="80" y="98" width="18" height="16" fill="#FFFDF8"/>
    <rect x="98" y="92" width="18" height="22" fill="#FFFDF8"/>
    <rect x="116" y="90" width="20" height="24" fill="#FFFDF8"/>
    <rect x="136" y="92" width="18" height="22" fill="#FFFDF8"/>
    <rect x="154" y="98" width="18" height="16" fill="#FFFDF8"/>

    <rect x="54" y="124" width="16" height="22" fill="#F6EFE5"/>
    <rect x="150" y="124" width="16" height="22" fill="#F6EFE5"/>
    <rect x="58" y="130" width="8" height="12" fill="#F6D8DE" opacity="0.75"/>
    <rect x="154" y="130" width="8" height="12" fill="#F6D8DE" opacity="0.75"/>

    <rect x="86" y="127" width="4" height="4" fill="#24324F"/>
    <rect x="130" y="127" width="4" height="4" fill="#24324F"/>

    <rect x="80" y="139" width="10" height="4" fill="#F6C0CB" opacity="0.8"/>
    <rect x="130" y="139" width="10" height="4" fill="#F6C0CB" opacity="0.8"/>

    <rect x="106" y="145" width="8" height="2" fill="#24324F"/>
    <rect x="104" y="147" width="12" height="2" fill="#24324F"/>

    <rect x="70" y="114" width="80" height="10" fill="#7EA9DF"/>
    <rect x="116" y="124" width="8" height="12" fill="#7EA9DF"/>
    <rect x="72" y="116" width="76" height="2" fill="#FFFFFF7D"/>

    <path d="M74 108 C88 92, 102 92, 116 108 C130 124, 144 124, 158 108" fill="none" stroke="#F08A96" stroke-width="6" stroke-linecap="round"/>
    <path d="M94 110 C104 100, 114 100, 124 110" fill="none" stroke="#79AFFF" stroke-width="5" stroke-linecap="round"/>
    <path d="M112 112 C120 104, 128 104, 136 112" fill="none" stroke="#F3C85A" stroke-width="5" stroke-linecap="round"/>

    <text x="110" y="258" text-anchor="middle" font-size="24" font-family="Arial, PingFang SC, Microsoft YaHei, sans-serif" fill="#263451">像素小羊卷</text>
  </g>

  <text x="370" y="205" font-size="82" font-weight="700" font-family="Arial, PingFang SC, Microsoft YaHei, sans-serif" fill="url(#title)">ColorWalking</text>
  <text x="370" y="278" font-size="34" font-family="Arial, PingFang SC, Microsoft YaHei, sans-serif" fill="#54627D">Walk in color, walk in mood.</text>
</svg>
