<svg width="1024" height="512" viewBox="0 0 1024 512" xmlns="http://www.w3.org/2000/svg" role="img" aria-label="LambRoll Isle 羊卷岛 字标+角色章">
  <rect width="1024" height="512" rx="36" fill="#F4E8E8"/>

  <g transform="translate(104,128)">
    <rect width="240" height="240" rx="120" fill="#FFF7F7" stroke="#E7D6D8" stroke-width="3"/>

    <circle cx="120" cy="124" r="56" fill="none" stroke="#2E466F" stroke-width="9"/>
    <path d="M95 120 C95 104, 108 94, 122 94 C138 94, 149 106, 149 122 C149 138, 136 150, 120 150 C112 150, 108 154, 110 162" fill="none" stroke="#2E466F" stroke-width="7" stroke-linecap="round"/>
    <path d="M86 76 C96 64, 112 61, 126 69" fill="none" stroke="#C3B3C6" stroke-width="7" stroke-linecap="round"/>
    <path d="M136 76 C146 64, 162 61, 174 71" fill="none" stroke="#C3B3C6" stroke-width="7" stroke-linecap="round"/>
    <path d="M70 172 H162 L148 194 H90 Z" fill="#9FB1D3"/>
  </g>

  <g transform="translate(382,224)">
    <text x="0" y="0" font-size="94" font-weight="760" letter-spacing="0.4" font-family="Avenir Next, Segoe UI, PingFang SC, Microsoft YaHei, sans-serif" fill="#243A60">LambRoll Isle</text>
    <text x="2" y="72" font-size="40" font-weight="650" letter-spacing="2" font-family="Avenir Next, Segoe UI, PingFang SC, Microsoft YaHei, sans-serif" fill="#4A678F">羊卷岛</text>
  </g>
</svg>
